<?xml version="1.0" encoding="UTF-8"?><svg id="splashScreen" xmlns="http://www.w3.org/2000/svg" viewBox="0 0 1920 1080"><g id="background"><rect id="background-2" width="1920" height="1080" fill="#606060"/></g><g id="flask"><path d="M458.93,460v67.18s40.14,70.72,49.37,86.24c13.12,22.06,5.94,59.16-24.69,59.16-30.62,0-52.81,0-52.81,0h2.14s-22.19,0-52.81,0-37.81-37.1-24.69-59.16c9.23-15.52,49.37-86.24,49.37-86.24v-67.18" fill="none" stroke="#fff" stroke-miterlimit="10" stroke-width="8.08"/><rect x="398.15" y="442.17" width="69.58" height="15.6" rx="3.61" ry="3.61" fill="none" stroke="#fff" stroke-miterlimit="10" stroke-width="8.08"/><path id="liquid" d="M471.71,582.33s18.9,28.08,20.46,38.77c1.56,10.7,1.87,37.1-18.75,37.1-20.62,0-42.18,0-42.18,0h1.7s-21.56,0-42.18,0-20.31-26.41-18.75-37.1c1.56-10.7,20.46-38.77,20.46-38.77" fill="#eb008b"/><ellipse id="liquidTop" cx="431.87" cy="582.33" rx="39.4" ry="4.35" fill="#b01f8a"/><g id="highlights"><path d="M480.3,608.19c-.17-1.01-.58-1.99-1-2.9-.68-1.49-1.71-2.84-2.77-4.04-2.14-2.4-4.8-4.09-7.69-5.23-1.06-.42-2.59-.1-3.54.49-.95.6-1.86,1.76-2.11,2.93-.27,1.26-.21,2.67.46,3.78.63,1.05,1.47,1.68,2.54,2.14-.06-.03-.11-.05-.17-.08.97.44,1.85,1.04,2.71,1.69.7.62,1.34,1.3,1.92,2.05.21.34.41.69.59,1.05.03.09.05.18.07.27,0,.14.02.28,0,.42l.03-.27s.03.09.04.14c-.08,1.02-.01,2.01.5,2.95.56,1.02,1.65,1.99,2.74,2.26,1.17.29,2.49.22,3.53-.49.95-.66,1.9-1.69,2.11-2.93.26-1.56.28-2.68.01-4.23Z" fill="#fff"/><path d="M486,630.9c-.19-.61-.5-1.14-.95-1.58-.8-.85-2.1-1.49-3.24-1.44-1.19.06-2.42.47-3.24,1.44-.78.91-1.45,2.19-1.34,3.47.04.44,0,.88-.02,1.32-.08.42-.19.82-.32,1.22-.16.33-.33.64-.52.95-.23.27-.44.55-.69.79-.85.8-1.34,2.3-1.34,3.47s.5,2.64,1.34,3.47c.87.86,2.02,1.5,3.24,1.44.41-.06.81-.12,1.22-.18.78-.23,1.45-.65,2.02-1.26.79-.74,1.43-1.64,2.04-2.55.63-.94,1.03-2,1.44-3.07.26-.69.44-1.41.55-2.14.17-1.16.32-2.29.22-3.46.02-.68-.11-1.31-.39-1.89Z" fill="#fff"/></g></g><g id="d1"><path id="d1-2" d="M428.97,386.62c0,22.14-17.95,40.1-40.1,40.1s-40.1-17.95-40.1-40.1,17.95-40.09,40.1-40.09,40.1,17.95,40.1,40.09" fill="#eb008b"/></g><g id="d7"><path id="d2" d="M481.72,401.12c0,12.93-10.48,23.41-23.41,23.41s-23.41-10.48-23.41-23.41,10.48-23.41,23.41-23.41,23.41,10.48,23.41,23.41" fill="#eb008b"/></g><g id="d2-2"><path id="d2-3" d="M454.86,449.97c0,12.93-10.48,23.41-23.41,23.41s-23.41-10.48-23.41-23.41,10.48-23.41,23.41-23.41,23.41,10.48,23.41,23.41" fill="#eb008b"/></g><g id="d3"><path id="d3-2" d="M521.02,359.98c0,12.93-10.48,23.41-23.41,23.41s-23.41-10.48-23.41-23.41,10.48-23.41,23.41-23.41,23.41,10.48,23.41,23.41" fill="#eb008b"/></g><g id="d4"><path id="d4-2" d="M436.93,313.11c0,12.93-10.48,23.41-23.41,23.41s-23.41-10.48-23.41-23.41,10.48-23.41,23.41-23.41,23.41,10.48,23.41,23.41" fill="#eb008b"/></g><g id="d5"><path id="d5-2" d="M491.47,312.94c0,9.27-7.52,16.79-16.79,16.79s-16.79-7.52-16.79-16.79,7.52-16.79,16.79-16.79,16.79,7.52,16.79,16.79" fill="#eb008b"/></g><g id="d6"><path id="d6-2" d="M465.02,351.99c0,9.27-7.52,16.79-16.79,16.79s-16.79-7.52-16.79-16.79,7.52-16.79,16.79-16.79,16.79,7.52,16.79,16.79" fill="#eb008b"/></g><g id="d8"><path id="d8-2" d="M514.46,279.83c0,6.7-5.44,12.14-12.14,12.14s-12.14-5.44-12.14-12.14,5.43-12.14,12.14-12.14,12.14,5.44,12.14,12.14" fill="#eb008b"/></g><g id="d9"><path id="d9-2" d="M377.83,320.7c0,6.7-5.44,12.14-12.14,12.14s-12.14-5.44-12.14-12.14,5.43-12.14,12.14-12.14,12.14,5.44,12.14,12.14" fill="#eb008b"/></g><g id="logoD"><path id="logoD-2" d="M298.29,661.63s-8.43,11.53-39.04,11.53-74.53-15.08-74.53-85.17,54.57-87.45,78.96-87.45,34.6,8.04,34.6,8.04v-65.21l39.04-10.2v237.33h-39.04v-8.87ZM273.01,533.87c-19.52,0-48.8,11.98-48.8,52.79s24.4,53.68,46.58,53.68,27.06-8.87,27.06-8.87v-88.28s-5.32-9.32-24.84-9.32" fill="#fff"/></g><g id="logoi"><polygon id="logoI" points="387.02 527.22 417.18 527.22 417.18 642.11 387.02 642.11 387.02 670.64 480.18 670.64 480.18 642.11 452.23 642.11 452.23 500.54 387.02 500.54 387.02 527.22" fill="#fff"/></g><g id="S"><path id="S-2" d="M692.27,674.79c-12.4,0-22.68-1.12-30.83-3.37-8.16-2.25-14.7-5.05-19.63-8.42-4.93-3.37-8.72-6.71-11.35-10.03-.88-1.27-1.66-2.49-2.34-3.66-.68-1.17-1.17-2.49-1.46-3.96-.39-1.95-.78-4.52-1.17-7.69-.39-3.17-.44-6.86-.15-11.06.1-1.76.44-2.98,1.03-3.66.68-.78,1.81-1.37,3.37-1.76,2.83-.68,6.52-1.29,11.06-1.83,4.54-.54,7.79-.81,9.74-.81,2.05,0,3.71.39,4.98,1.17,1.27.78,2.78,2.1,4.54,3.96,1.95,2.05,5.32,4.66,10.11,7.84,4.78,3.17,12.16,4.76,22.12,4.76s16.8-2,21.68-6.01c4.88-4,7.32-9.57,7.32-16.7,0-3.81-1.15-7.4-3.44-10.77-2.3-3.37-6.47-6.74-12.52-10.11-6.06-3.37-14.7-6.91-25.93-10.62-18.56-6.25-31.93-14.01-40.14-23.29-8.2-9.28-12.3-22.17-12.3-38.67,0-13.67,3.32-25.1,9.96-34.28,6.64-9.18,15.82-16.11,27.54-20.8s25.24-7.03,40.58-7.03c11.81,0,21.61,1.39,29.37,4.17s13.79,5.91,18.09,9.38c4.3,3.47,7.08,6.28,8.35,8.42.78,1.27,1.29,2.22,1.54,2.86.24.64.41,1.49.51,2.56.29,3.03.39,6.4.29,10.11-.1,3.71-.44,7.91-1.03,12.6-.29,1.56-.83,2.64-1.61,3.22-.68.49-1.76.73-3.22.73-9.47.2-16.8-.29-21.97-1.46-2.05-.49-3.42-.98-4.1-1.46-.68-.49-1.56-1.27-2.64-2.34-1.56-1.85-4.03-4.03-7.4-6.52s-8.77-3.74-16.19-3.74c-10.25,0-17.53,2.32-21.83,6.96-4.3,4.64-6.45,9.84-6.45,15.6,0,6.84,3.17,12.18,9.52,16.04,6.35,3.86,16.36,8.23,30.03,13.11,11.43,4.01,21.24,8.35,29.44,13.04s14.48,10.69,18.82,18.02c4.34,7.32,6.52,16.99,6.52,29,0,14.94-3.44,27.34-10.33,37.21-6.88,9.87-16.26,17.21-28.12,22.05s-25.32,7.25-40.36,7.25Z" fill="#fff"/></g><g id="c"><path id="c-2" d="M874.28,517.61c11.62,0,20.07.95,25.34,2.86s8.59,3.39,9.96,4.47c2.15,1.37,3.81,3.13,4.98,5.27.68,1.08,1.46,2.93,2.34,5.57s1.51,5.52,1.9,8.64c.49,2.44.54,4.17.15,5.2-.39,1.03-1.61,2.27-3.66,3.74-2.34,1.56-4.91,2.96-7.69,4.17-2.78,1.22-5.05,2.08-6.81,2.56-1.46.39-2.59.49-3.37.29-.78-.19-1.86-.78-3.22-1.76-1.56-1.07-3.76-2.27-6.59-3.59-2.83-1.32-6.74-1.98-11.72-1.98-6.35,0-12.38,1.56-18.09,4.69-5.71,3.13-10.35,7.81-13.92,14.06-3.57,6.25-5.35,14.06-5.35,23.44,0,14.06,3.69,24.95,11.06,32.67,7.37,7.72,17.26,11.57,29.66,11.57,6.35,0,11.62-.66,15.82-1.98,4.2-1.32,7.52-2.66,9.96-4.03,1.95-1.07,3.44-1.34,4.47-.81,1.03.54,1.83,1.49,2.42,2.86l10.69,24.17c1.07,2.54.49,4.35-1.76,5.42-3.61,1.86-9.57,3.96-17.87,6.3-8.3,2.34-18.56,3.52-30.76,3.52-24.51,0-44.09-6.52-58.74-19.56s-21.97-32.54-21.97-58.52c0-16.6,3.37-30.81,10.11-42.63,6.74-11.81,16.31-20.87,28.71-27.17,12.4-6.3,27.05-9.45,43.95-9.45Z" fill="#fff"/></g><g id="i"><path id="i-2" d="M989.79,663.51c0,2.93-.61,4.96-1.83,6.08-1.22,1.12-3.3,1.68-6.23,1.68h-30.18c-2.93,0-5.01-.56-6.23-1.68-1.22-1.12-1.83-3.15-1.83-6.08v-134.47c0-2.93.61-4.96,1.83-6.08,1.22-1.12,3.3-1.68,6.23-1.68h30.18c2.93,0,5,.56,6.23,1.68,1.22,1.12,1.83,3.15,1.83,6.08v134.47Z" fill="#fff"/></g><g id="iDot"><path id="i_dot" d="M936.76,472.05c0-1.27.39-2.39,1.17-3.37.78-.98,1.81-2.25,3.08-3.81,2.73-3.12,5.91-6.42,9.52-9.89,3.61-3.47,7.27-6.81,10.99-10.03,2.34-1.85,4.1-2.78,5.27-2.78s2.98.93,5.42,2.78c7.91,6.84,14.65,13.48,20.21,19.92,1.27,1.46,2.32,2.71,3.15,3.74.83,1.03,1.25,2.17,1.25,3.44s-.42,2.39-1.25,3.37c-.83.98-1.93,2.3-3.3,3.96-2.64,3.03-5.71,6.28-9.23,9.74-3.52,3.47-7.13,6.76-10.84,9.89-1.37,1.17-2.44,1.93-3.22,2.27-.78.34-1.52.51-2.2.51s-1.39-.17-2.12-.51c-.73-.34-1.88-1.1-3.44-2.27-3.91-3.12-7.57-6.42-10.99-9.89-3.42-3.47-6.5-6.81-9.23-10.03-1.27-1.56-2.3-2.81-3.08-3.74-.78-.93-1.17-2.03-1.17-3.3Z" fill="#fff"/></g><g id="e"><path id="e-2" d="M1100.17,674.94c-16.5,0-30.86-2.66-43.07-7.98-12.21-5.32-21.68-13.6-28.42-24.83-6.74-11.23-10.11-25.73-10.11-43.51,0-26.66,6.83-46.82,20.51-60.5s31.83-20.51,54.49-20.51c14.74,0,27.22,2.64,37.43,7.91,10.2,5.27,17.97,12.55,23.29,21.83,5.32,9.28,7.98,19.87,7.98,31.79s-2.98,19.73-8.94,24.32c-5.96,4.59-14.65,6.88-26.07,6.88h-62.84c.78,10.06,4.47,17.72,11.06,23s15.55,7.91,26.88,7.91c8.98,0,16.19-1.34,21.61-4.03,5.42-2.68,9.2-4.81,11.35-6.37,1.85-1.37,3.96-2,6.3-1.9,1.85,0,4.52.37,7.98,1.1,3.46.73,6.91,2.08,10.33,4.03,2.44,1.27,3.66,3.03,3.66,5.27,0,1.27-.25,3.08-.73,5.42-.29,1.37-.78,3.35-1.46,5.93-.68,2.59-1.56,5.01-2.64,7.25-.59,1.08-1.52,2.1-2.78,3.08-1.96,1.37-5.1,3.17-9.45,5.42-4.35,2.25-10.28,4.23-17.8,5.93-7.52,1.71-17.04,2.56-28.56,2.56ZM1064.13,580.31h47.75c4.98,0,7.47-2.29,7.47-6.88,0-6.93-2.17-12.77-6.52-17.5-4.35-4.74-10.87-7.1-19.56-7.1-9.47,0-16.43,3.03-20.87,9.08-4.45,6.06-7.2,13.53-8.28,22.41Z" fill="#fff"/></g><g id="n"><path id="n-2" d="M1336.52,577.96v85.55c0,2.93-.61,4.96-1.83,6.08-1.22,1.12-3.3,1.68-6.23,1.68h-30.18c-2.93,0-5.01-.56-6.23-1.68-1.22-1.12-1.83-3.15-1.83-6.08v-77.93c0-10.64-2.25-18.41-6.74-23.29-4.49-4.88-10.6-7.32-18.31-7.32s-13.65,1.66-17.8,4.98c-4.15,3.32-7.35,7.52-9.59,12.6v90.97c0,2.93-.61,4.96-1.83,6.08-1.22,1.12-3.3,1.68-6.23,1.68h-30.18c-2.93,0-5.01-.56-6.23-1.68-1.22-1.12-1.83-3.15-1.83-6.08v-122.75c0-2.34.49-4.15,1.46-5.42,2.05-2.73,4.52-5.52,7.4-8.35,2.88-2.83,6.42-5.86,10.62-9.08,1.27-.98,2.49-1.46,3.66-1.46,1.07,0,2.29.49,3.66,1.46,4.1,3.22,7.62,6.3,10.55,9.23s5.52,5.96,7.76,9.08h.73c1.66-2.15,4.15-4.66,7.47-7.54,3.32-2.88,7.98-5.44,13.99-7.69,6.01-2.25,13.7-3.37,23.07-3.37s17.92,1.86,26.22,5.57c8.3,3.71,15.11,9.96,20.43,18.75,5.32,8.79,7.98,20.8,7.98,36.04Z" fill="#fff"/></g><g id="c2"><path id="c2-2" d="M1447.78,517.61c11.62,0,20.07.95,25.34,2.86s8.59,3.39,9.96,4.47c2.15,1.37,3.81,3.13,4.98,5.27.68,1.08,1.46,2.93,2.34,5.57s1.51,5.52,1.9,8.64c.49,2.44.54,4.17.15,5.2-.39,1.03-1.61,2.27-3.66,3.74-2.34,1.56-4.91,2.96-7.69,4.17-2.78,1.22-5.05,2.08-6.81,2.56-1.46.39-2.59.49-3.37.29-.78-.19-1.86-.78-3.22-1.76-1.56-1.07-3.76-2.27-6.59-3.59-2.83-1.32-6.74-1.98-11.72-1.98-6.35,0-12.38,1.56-18.09,4.69-5.71,3.13-10.35,7.81-13.92,14.06-3.57,6.25-5.35,14.06-5.35,23.44,0,14.06,3.68,24.95,11.06,32.67,7.37,7.72,17.26,11.57,29.66,11.57,6.35,0,11.62-.66,15.82-1.98,4.2-1.32,7.52-2.66,9.96-4.03,1.95-1.07,3.44-1.34,4.47-.81,1.03.54,1.83,1.49,2.42,2.86l10.69,24.17c1.07,2.54.49,4.35-1.76,5.42-3.61,1.86-9.57,3.96-17.87,6.3-8.3,2.34-18.56,3.52-30.76,3.52-24.51,0-44.09-6.52-58.74-19.56s-21.97-32.54-21.97-58.52c0-16.6,3.37-30.81,10.11-42.63,6.74-11.81,16.31-20.87,28.71-27.17,12.4-6.3,27.05-9.45,43.95-9.45Z" fill="#fff"/></g><g id="e2"><path id="e2-2" d="M1590.53,674.94c-16.5,0-30.86-2.66-43.07-7.98-12.21-5.32-21.68-13.6-28.42-24.83-6.74-11.23-10.11-25.73-10.11-43.51,0-26.66,6.83-46.82,20.51-60.5s31.83-20.51,54.49-20.51c14.74,0,27.22,2.64,37.43,7.91,10.2,5.27,17.97,12.55,23.29,21.83,5.32,9.28,7.98,19.87,7.98,31.79s-2.98,19.73-8.94,24.32c-5.96,4.59-14.65,6.88-26.07,6.88h-62.84c.78,10.06,4.47,17.72,11.06,23s15.55,7.91,26.88,7.91c8.98,0,16.19-1.34,21.61-4.03,5.42-2.68,9.2-4.81,11.35-6.37,1.85-1.37,3.96-2,6.3-1.9,1.85,0,4.52.37,7.98,1.1,3.46.73,6.91,2.08,10.33,4.03,2.44,1.27,3.66,3.03,3.66,5.27,0,1.27-.25,3.08-.73,5.42-.29,1.37-.78,3.35-1.46,5.93-.68,2.59-1.56,5.01-2.64,7.25-.59,1.08-1.52,2.1-2.78,3.08-1.96,1.37-5.1,3.17-9.45,5.42-4.35,2.25-10.28,4.23-17.8,5.93-7.52,1.71-17.04,2.56-28.56,2.56ZM1554.5,580.31h47.75c4.98,0,7.47-2.29,7.47-6.88,0-6.93-2.17-12.77-6.52-17.5-4.35-4.74-10.87-7.1-19.56-7.1-9.47,0-16.43,3.03-20.87,9.08-4.45,6.06-7.2,13.53-8.28,22.41Z" fill="#fff"/></g><g id="exclamation"><path id="exclamation-2" d="M1694.03,597.15c-4.2,0-6.4-2.34-6.59-7.03l-5.57-121.73c-.2-4.78,2.1-7.18,6.88-7.18h35.74c4.78,0,7.08,2.39,6.88,7.18l-5.86,121.73c-.2,4.69-2.39,7.03-6.59,7.03h-24.9Z" fill="#fff"/></g><g id="exclamationPoint"><path id="exclamation_point" d="M1676.16,645.93c0-1.27.41-2.42,1.25-3.44.83-1.03,1.93-2.37,3.3-4.03,2.93-3.32,6.3-6.81,10.11-10.47s7.71-7.2,11.72-10.62c2.44-1.95,4.25-2.93,5.42-2.93s3.08.98,5.71,2.93c8.2,7.13,15.38,14.16,21.53,21.09,1.27,1.66,2.34,3,3.22,4.03s1.32,2.17,1.32,3.44c0,1.37-.46,2.59-1.39,3.66-.93,1.08-2.03,2.49-3.3,4.25-2.83,3.22-6.13,6.62-9.89,10.18-3.76,3.57-7.59,7.06-11.5,10.47-2.44,2.05-4.35,3.08-5.71,3.08-1.08,0-2.98-1.03-5.71-3.08-4.2-3.42-8.11-6.93-11.72-10.55-3.61-3.61-6.88-7.13-9.81-10.55-1.37-1.66-2.47-2.98-3.3-3.96-.83-.97-1.25-2.15-1.25-3.52Z" fill="#fff"/></g><g id="flaskLip"><line id="flaskLip-2" x1="464.24" y1="457.77" x2="401.65" y2="457.77" fill="none" stroke="#fff" stroke-miterlimit="10" stroke-width="8.08"/></g><g id="scroll"><polyline id="scroll-2" points="921.94 1003.3 960.67 1042.02 998.06 1004.63" fill="none" stroke="#fff" stroke-linecap="round" stroke-linejoin="round" stroke-width="14"/></g></svg>