<?xml version="1.0" encoding="UTF-8"?><svg xmlns="http://www.w3.org/2000/svg" xmlns:xlink="http://www.w3.org/1999/xlink" viewBox="0 0 1366 768"><defs><style>.ab{fill:url(#q);}.ac{fill:url(#r);}.ad{fill:url(#j);}.ae{fill:url(#l);}.af{fill:url(#n);}.ag{fill:url(#b);}.ah{fill:url(#aa);}.ai{fill:none;}.aj{fill:#fff;}.ak{fill:#b3b3b3;}.al{fill:#b6e9ff;}.am{fill:#22b562;}.an{fill:#1b914f;}.ao{fill:#29abe2;}.ap{fill:#2b99c9;}.aq{fill:#ffe700;stroke:#000;stroke-miterlimit:10;stroke-width:.5px;}.ar{clip-path:url(#v);}.as{clip-path:url(#t);}.at{clip-path:url(#x);}.au{clip-path:url(#w);}.av{clip-path:url(#f);}.aw{clip-path:url(#m);}.ax{clip-path:url(#k);}.ay{clip-path:url(#i);}.b`{clip-path:url(#g);}.ba{clip-path:url(#p);}</style><linearGradient id="b" x1="683" y1="665.16" x2="683" y2="259.88" gradientTransform="matrix(1, 0, 0, 1, 0, 0)" gradientUnits="userSpaceOnUse"><stop offset="0" stop-color="#fff"/><stop offset="1" stop-color="#29abe2"/></linearGradient><clipPath id="f"><path d="M246.9,115.83c2.73-18.21,20.43-13.62,21.94-12.86s3.97-12.44,12.86-16.65c6.64-3.15,16.25-2.51,24.97,0,10.14,2.92,19.14,8.45,21.71,14.76,.24,.38,4.04-13.83,11.95-14.76,12.02-1.41,21.38,3.33,27.23,7.93,3.55,2.79,5.82,5.54,6.62,6.82,2.11,3.41,8.16,8.7,6.65,17.78s-11.35,10.59-11.35,10.59l-114.26,.76s-10.59,.76-8.32-14.38Z" fill="#fff"/></clipPath><clipPath id="g"><path d="M519.94,154.93c-3.55-27.29-26.56-20.42-28.53-19.28s-5.17-18.64-16.72-24.95c-8.64-4.72-21.13-3.76-32.46,0-13.19,4.37-24.88,12.66-28.22,22.12-.31,.57-5.25-20.72-15.53-22.12-15.63-2.12-27.79,4.99-35.4,11.89-4.62,4.19-7.57,8.3-8.61,10.22-2.74,5.1-10.61,13.04-8.65,26.65,1.97,13.61,14.76,15.88,14.76,15.88l148.54,1.13s13.77,1.13,10.82-21.55Z" fill="#fff"/></clipPath><clipPath id="i"><rect x="1" width="1365" height="767" fill="none"/></clipPath><linearGradient id="j" x1="40" y1="437.4" x2="737.61" y2="437.4" gradientTransform="matrix(1, 0, 0, 1, 0, 0)" gradientUnits="userSpaceOnUse"><stop offset="0" stop-color="#00626e"/><stop offset=".01" stop-color="#006370"/><stop offset=".15" stop-color="#007382"/><stop offset=".32" stop-color="#007f8f"/><stop offset=".54" stop-color="#008696"/><stop offset="1" stop-color="#089"/></linearGradient><clipPath id="k"><path d="M40,550.48c77.65-38.4,232.09-171.51,254.27-240.62,22.18-69.11,74.23-94.71,83.62-96.42,9.39-1.71,18.97,46.08,63.14,88.74,44.17,42.66,115.19,67.41,157.85,110.92,42.66,43.52,146.76,194.54,138.23,248.3H45.12l-5.12-110.92Z" fill="#j"/></clipPath><linearGradient id="l" x1="216.02" y1="406.82" x2="793.75" y2="740.37" xlink:href="#j"/><linearGradient id="n" x1="216.02" y1="406.82" x2="793.75" y2="740.37" xlink:href="#j"/><clipPath id="m"><path d="M78.4,645.19c67.86-38.4,339.77-240.62,359.15-309.73,19.39-69.11,53.3-80.21,61.5-81.91s28.15,31.57,66.76,74.23c38.61,42.66,100.67,67.41,137.95,110.92,37.28,43.52,128.26,194.54,120.8,248.3H219.81l-141.41-41.81Z" fill="#n"/></clipPath><clipPath id="p"><rect x="1" width="1365" height="767" fill="none"/></clipPath><linearGradient id="q" x1="660.4" y1="759" x2="660.4" y2="464.33" gradientTransform="matrix(1, 0, 0, 1, 0, 0)" gradientUnits="userSpaceOnUse"><stop offset="0" stop-color="#00592f"/><stop offset=".29" stop-color="#005e31"/><stop offset="1" stop-color="#006133"/></linearGradient><linearGradient id="r" x1="705.79" y1="775.26" x2="705.79" y2="480.6" gradientTransform="translate(1383.59) rotate(-180) scale(1 -1)" gradientUnits="userSpaceOnUse"><stop offset="0" stop-color="#00592f"/><stop offset=".43" stop-color="#005d31"/><stop offset=".92" stop-color="#006a38"/><stop offset="1" stop-color="#006e3a"/></linearGradient><clipPath id="t"><rect x="1" width="1365" height="767" fill="none"/></clipPath><clipPath id="v"><rect x="1" width="1365" height="767" fill="none"/></clipPath><clipPath id="w"><path d="M-180,565c180,0,336,55,397,57s145.55-17.67,194.77-10.33,96.08,3.19,111.15,23.26-85.93,19.07-113.93,21.07-102.1,19.33-123.55,34.66-13.13,68.34-20.79,88.34-444.66,0-444.66,0v-214Z" fill="#22b562"/></clipPath><clipPath id="x"><path d="M1480.82,611.67s-217.65-4.33-294.23,0-278.19-9.33-320.39,0-63.2,28.33-55.2,38.33,117-5,153,16-235.68,31-274.34,93,804.34,40,804.34,40l-13.18-187.33Z" fill="#22b562"/></clipPath><linearGradient id="aa" x1="683" y1="665.53" x2="683" y2="259.72" gradientTransform="matrix(1, 0, 0, 1, 0, 0)" gradientUnits="userSpaceOnUse"><stop offset="0" stop-color="#000"/><stop offset="1" stop-color="#1b1464"/></linearGradient></defs><g id="a"><g><rect x=".5" y=".5" width="1365" height="767" fill="#b"/><path d="M1365,1V767H1V1H1365m1-1H0V768H1366V0h0Z" fill="#fff"/></g></g><g id="c"><circle id="d" cx="1140.5" cy="121.5" r="63.5" fill="#ffe700" stroke="#000" stroke-miterlimit="10" stroke-width=".5"/></g><g id="e"><g><path d="M246.9,115.83c2.73-18.21,20.43-13.62,21.94-12.86s3.97-12.44,12.86-16.65c6.64-3.15,16.25-2.51,24.97,0,10.14,2.92,19.14,8.45,21.71,14.76,.24,.38,4.04-13.83,11.95-14.76,12.02-1.41,21.38,3.33,27.23,7.93,3.55,2.79,5.82,5.54,6.62,6.82,2.11,3.41,8.16,8.7,6.65,17.78s-11.35,10.59-11.35,10.59l-114.26,.76s-10.59,.76-8.32-14.38Z" fill="#fff"/><g clip-path="#f"><path d="M391.05,130.02c1.76,4.59-34.05,8.89-76.05,8.89s-71.89-9.85-71.89-14.76,28.37,.76,70.37,.76,74.16-3.78,77.56,5.11Z" fill="#b3b3b3"/></g></g><g><path d="M519.94,154.93c-3.55-27.29-26.56-20.42-28.53-19.28s-5.17-18.64-16.72-24.95c-8.64-4.72-21.13-3.76-32.46,0-13.19,4.37-24.88,12.66-28.22,22.12-.31,.57-5.25-20.72-15.53-22.12-15.63-2.12-27.79,4.99-35.4,11.89-4.62,4.19-7.57,8.3-8.61,10.22-2.74,5.1-10.61,13.04-8.65,26.65,1.97,13.61,14.76,15.88,14.76,15.88l148.54,1.13s13.77,1.13,10.82-21.55Z" fill="#fff"/><g clip-path="#g"><g><path d="M350.4,154.14c0-.12-.01-.23-.03-.35v.17c0,.06,.01,.12,.03,.18Z" fill="#b3b3b3"/><path d="M433.37,168.54c-23.78,0-45.14-1.08-62.03-1.19-3.44-2.44-7.01-4.51-10.78-6.49-1.84-.96-3.68-1.92-5.48-2.96-1.03-.59-2.04-1.2-3.03-1.86-.02-.01-.04-.03-.07-.05-.41-.48-.98-1.06-1.5-1.51-.02-.11-.05-.22-.07-.34,0,.09,0,.17,0,.26-.02-.04-.04-.09-.07-.14,0-.05,0-.09,.01-.14v-.15c-.04-.21-.09-.41-.14-.57l.03-.09c.07,.13,.11,.3,.13,.5,.03-.33,.06-.83,.08-1.27,.28-1.08,.49-2.18,.81-3.25,.39-1.29,.83-2.56,1.3-3.82,.03-.07,.17-.49,.32-.91,.05-.11,.11-.23,.17-.38,5.43-12.25,10.67-24.59,15.67-37.03,5.33-13.29,10.35-26.7,15.09-40.21,3.12-8.91-3.54-20.11-12.59-22.17-10.07-2.29-18.82,3.05-22.17,12.59-4.57,13.05-9.42,26.01-14.55,38.86-1.26,3.15-2.54,6.3-3.83,9.44-.55,1.35-1.11,2.69-1.67,4.03-.22,.53-1.48,3.37-.5,1.2,.94-2.07-.35,.83-.51,1.2-3.12,7.31-6.5,14.52-9.44,21.9-6.17,15.51-5.72,32.34,5.69,45.28,7.41,8.4,18.11,11.74,27.11,17.85,.19,.13,.36,.24,.49,.33,.05,.04,.09,.07,.14,.12,1.13,.94,2.23,1.91,3.33,2.88,2.63,2.33,5.28,4.59,8.06,6.74,7.34,5.67,14.78,8.75,24.06,9.79,9.4,1.05,18.42-9.04,18.02-18.02-.18-3.98-1.33-7.34-3.23-10.05,9.28,.4,19.1,.62,29.19,.62,54.6,0,93.46-14.76,93.46-22.12s-36.89,1.13-91.49,1.13Z" fill="#b3b3b3"/></g></g></g></g><g id="h"><g clip-path="#i"><g><path d="M40,550.48c77.65-38.4,232.09-171.51,254.27-240.62,22.18-69.11,74.23-94.71,83.62-96.42,9.39-1.71,18.97,46.08,63.14,88.74,44.17,42.66,115.19,67.41,157.85,110.92,42.66,43.52,146.76,194.54,138.23,248.3H45.12l-5.12-110.92Z" fill="#j"/><g clip-path="#k"><path d="M512.14,139.17c-2.51-10.58-7.36-19.79-14.55-27.64-5.73-8.85-13.33-15.83-22.8-20.93-18.86-9.97-41.71-14.96-62.63-8.19-15.5,5.01-29.61,13.43-40.18,25.59-10.43-1.61-21.2-3.55-31.8-3.31-2.54,.06-5.05,.32-7.57,.63-9.13,1.11-18.61,1.73-27.54,4.12-5.29,1.42-10.3,3.86-15.31,5.97-5.01,2.12-10.36,4.05-15.17,6.73-9.35,5.19-17.71,12.5-25.88,19.19-7.07,5.8-13.09,12.75-19.03,19.66-7.93,7.36-13.53,16.08-16.8,26.16-5.09,9.69-7.42,20.12-7,31.31-.42,11.19,1.91,21.63,7,31.31,3.28,10.08,8.88,18.79,16.8,26.16,15.49,14.22,35.82,24.77,57.47,23.8,7.2-.97,14.4-1.94,21.61-2.9,13.77-3.86,25.72-10.83,35.86-20.9,2.04-2.37,4.09-4.73,6.19-7.05,2.2,.44,4.41,.85,6.62,1.2,10.92,1.75,22.19,3.89,33.32,4.04,2.4,.03,4.76-.14,7.14-.4,8.73-.95,17.93-1.58,26.48-3.88,19.74-5.31,39.96-17.12,53.78-32.28,9.89-10.85,18.49-23.03,25.79-35.76,5.94-9.33,9.15-19.4,9.64-30.22,2.42-10.8,1.94-21.61-1.45-32.41Z" fill="#fff"/></g></g><g><path d="M78.4,645.19c67.86-38.4,339.77-240.62,359.15-309.73,19.39-69.11,53.3-80.21,61.5-81.91s28.15,31.57,66.76,74.23c38.61,42.66,100.67,67.41,137.95,110.92,37.28,43.52,128.26,194.54,120.8,248.3H219.81l-141.41-41.81Z" fill="#l"/><g clip-path="#m"><path d="M619.81,255.09c-.82-18.39-6.87-37.47-20.83-50.29-4.8-3.71-9.6-7.41-14.39-11.12-11.09-6.43-23.06-9.67-35.89-9.71-2.89-.3-5.84-.39-8.8-.31-3.76-1.64-7.78-3.15-10.89-4.18-6.57-2.17-13.73-3.13-20.59-2.92-3.73,.11-6.67,.77-10.91,1.34-11.94,1.6-14.75,1.45-27.34,8.71-.56,.32-1.11,.63-1.67,.95-1.83,1.41-3.65,2.82-5.48,4.23-4.16,.54-8.3,1.25-12.36,2.14-13.44,2.94-24.98,9.98-35.77,17.98-17.99,13.35-35.7,27.16-52.64,41.82-6.93,6.44-11.84,14.07-14.7,22.89-4.45,8.47-6.49,17.61-6.12,27.4-.37,9.79,1.67,18.92,6.12,27.4,2.87,8.82,7.77,16.45,14.7,22.89,13.55,12.44,31.35,21.68,50.29,20.83,6.3-.85,12.6-1.69,18.9-2.54,12.05-3.38,22.51-9.47,31.38-18.29,8.81-7.62,17.81-15,27.01-22.15,3.87-.4,7.85-.73,11.78-1.3,.12,.03,.24,.07,.36,.1,16.3,3.71,35.94,3.78,50.98-4.75,8.2-.29,15.92-2.32,23.15-6.13,8.82-2.87,16.45-7.77,22.89-14.7,6.93-6.44,11.84-14.07,14.7-22.89,4.45-8.47,6.49-17.61,6.12-27.4Zm-142.76,86.92c4.14-3.18,8.32-6.67,12.68-9.84h.06c-4.25,3.28-8.49,6.56-12.74,9.84Z" fill="#fff"/></g></g></g></g><g id="o"><g clip-path="#p"><path d="M-62,537.34s88-7.44,101-14.13,31-17.85,43-4.46c0,0,1-34.21,37-25.28,36,8.92,32,25.28,32,25.28l11,5.95s-10-14.13,3-20.82c13-6.69,34,2.23,34,2.23,0,0-1-8.92,4-11.9s46-3.72,36,14.13c0,0,6.5-7.06,12.5-.37,6,6.69,11,3.72,11,3.72,0,0,6-13.39,16-14.87,10-1.49,26-3.72,28,14.13,0,0,2-2.23,7-8.18s9-16.36,18-18.59,26-4.46,32,4.46c6,8.92,5.29,21.13,5.29,21.13l5.71-6.25s0-14.87,3-17.1,24,1.49,27,8.92,32,5.95,32,5.95c0,0-8-8.92,17-11.15,25-2.23,39,.74,37,8.18s.19,22.98,.19,22.98c0,0,18.81-21.49,27.81-19.26,0,0-6-5.95,8-7.44,14-1.49,35-6.69,31,4.46s12,20.82,10,22.31,8-13.39,3-29,31-39.41,56-14.87,3,29,3,29h13s1-9.67-4-21.57,20-17.1,25-18.59,36,5.21,34,16.36-8,23.05-11,25.28,20.63-5.04,29.31-6.24c8.69-1.2,24.69-4.92,29.69,6.98,0,0,1-10.41,15-10.41s26-.74,29,8.92c0,0,9.96-10.25,28.48-5.49,18.52,4.75,14.52,14.42,13.52,16.65,0,0-9.88-18.34,1.06-28.5,10.94-10.17,49.94-14.63,50.94,5.45,0,0,10-13.39,24-8.92,14,4.46,34,6.69,25,20.08s-12,20.82-12,20.82c0,0-19-8.18,2-20.82,21-12.64,45.07-11.73,54.04-4.75,8.96,6.98,24.96,12.93,10.96,22.6,0,0-10.97-19.44,5.52-25.34,16.48-5.9,53.48-7.39,57.48-1.44s3,6.36,0,13.59c0,0-7.72-13.61,2.64-20.67s19.36-15.24,35.36-10.03,20,26.77,20,26.77c-4,3.72-3-14.13,10-20.08,13-5.95,33-7.44,43-.74,10,6.69,31,10.41,24,29,0,0-11-20.82,6-28.26s30-11.9,38-7.44,44,21.57,40,29.75c0,0-10.38-13.46,.31-23.83s30.69-14.09,35.69-10.37,5,6.69,6,11.9c0,0-10.11-12.7,9.94-18.99s74.06-6.29,78.06,11.55,4,279.3,4,279.3H-82.7l20.7-221.66Z" fill="#q"/><path d="M1400.19,553.6s-88-7.44-101-14.13-31-17.85-43-4.46c0,0-1-34.21-37-25.28-36,8.92-32,25.28-32,25.28l-11,5.95s10-14.13-3-20.82c-13-6.69-34,2.23-34,2.23,0,0,1-8.92-4-11.9s-46-3.72-36,14.13c0,0-6.5-7.06-12.5-.37-6,6.69-11,3.72-11,3.72,0,0-6-13.39-16-14.87s-26-3.72-28,14.13c0,0-2-2.23-7-8.18-5-5.95-9-16.36-18-18.59s-26-4.46-32,4.46c-6,8.92-5.29,21.13-5.29,21.13l-5.71-6.25s0-14.87-3-17.1-24,1.49-27,8.92-32,5.95-32,5.95c0,0,8-8.92-17-11.15-25-2.23-39,.74-37,8.18s-.19,22.98-.19,22.98c0,0-18.81-21.49-27.81-19.26,0,0,6-5.95-8-7.44s-35-6.69-31,4.46c4,11.15-12,20.82-10,22.31s-8-13.39-3-29c5-15.62-31-39.41-56-14.87s-3,29-3,29h-13s-1-9.67,4-21.57-20-17.1-25-18.59-36,5.21-34,16.36c2,11.15,8,23.05,11,25.28s-20.63-5.04-29.31-6.24-24.69-4.92-29.69,6.98c0,0-1-10.41-15-10.41-14,0-26-.74-29,8.92,0,0-9.96-10.25-28.48-5.49-18.52,4.75-14.52,14.42-13.52,16.65,0,0,9.88-18.34-1.06-28.5-10.94-10.17-49.94-14.63-50.94,5.45,0,0-10-13.39-24-8.92s-34,6.69-25,20.08,12,20.82,12,20.82c0,0,19-8.18-2-20.82-21-12.64-45.07-11.73-54.04-4.75-8.96,6.98-24.96,12.93-10.96,22.6,0,0,10.97-19.44-5.52-25.34-16.48-5.9-53.48-7.39-57.48-1.44s-3,6.36,0,13.59c0,0,7.72-13.61-2.64-20.67-10.36-7.06-19.36-15.24-35.36-10.03s-20,26.77-20,26.77c4,3.72,3-14.13-10-20.08s-33-7.44-43-.74c-10,6.69-31,10.41-24,29,0,0,11-20.82-6-28.26-17-7.44-30-11.9-38-7.44-8,4.46-44,21.57-40,29.75,0,0,10.38-13.46-.31-23.83s-30.69-14.09-35.69-10.37-5,6.69-6,11.9c0,0,10.11-12.7-9.94-18.99s-74.06-6.29-78.06,11.55c-4,17.85-4,279.3-4,279.3H1420.9l-20.7-221.66Z" fill="#r"/></g></g><g id="s"><g clip-path="#t"><polygon points="-133 578 1641.01 578 1649 821 -122 821 -133 578" fill="#29abe2"/><path d="M825,588.55h-142c10,2.23,34,2.23,44,4.23s2,3.5,0,4,112,0,112.5,0-3.37-4.01-17.44-4c-14.07,0-21.07-3.95,2.93-4.23Z" fill="#b6e9ff"/><path d="M226.54,585h142c-10,3.7-34,3.7-44,7.02s-2,5.81,0,6.64-112,0-112.5,0,3.37-6.65,17.44-6.65c14.07,0,21.07-6.56-2.93-7.02Z" fill="#b6e9ff"/><path d="M1267.54,585h142c-10,3.7-34,3.7-44,7.02s-2,5.81,0,6.64-112,0-112.5,0,3.37-6.65,17.44-6.65c14.07,0,21.07-6.56-2.93-7.02Z" fill="#b6e9ff"/><path d="M602.27,723h64.3s10.44,10.1-11.56,10.1-31.69,7.31-19.35,10.28c12.35,2.97-8.65,11.49-16.65,10.54-8-.95-44-3.79-33-8.52s47.05,3.22,31.52-6.91-51.67-9.82-33.6-12.34,18.34-3.16,18.34-3.16Z" fill="#b6e9ff"/><ellipse cx="738" cy="679.5" rx="13" ry="3.5" fill="#b6e9ff"/><ellipse cx="383.5" cy="742.5" rx="10.5" ry="3.5" fill="#b6e9ff"/><path d="M451.7,626.59s67.21-.43,72.75,11.99-15.45,20.42-15.45,20.42c0,0-90.85,5-127.93,17s-82.53,8.12-90.8,29.56-11.27,60.44-12.27,66.44-95,26-95,26l7-149,261.7-22.41Z" fill="#2b99c9"/><ellipse cx="881" cy="673" rx="41" ry="7" fill="#2b99c9"/></g></g><g id="u"><g clip-path="#v"><g><path d="M-180,565c180,0,336,55,397,57s145.55-17.67,194.77-10.33,96.08,3.19,111.15,23.26-85.93,19.07-113.93,21.07-102.1,19.33-123.55,34.66-13.13,68.34-20.79,88.34-444.66,0-444.66,0v-214Z" fill="#22b562"/><g clip-path="#w"><path d="M592.43,670.13c-.48-10.78-4.02-21.96-12.21-29.47-7.59-6.97-18.75-13.47-29.47-12.21-42.68,5.03-85.36,10.06-128.04,15.1-21.01,2.48-42.02,4.95-63.04,7.43-25.09,2.96-52.42,3.06-74.87,16.01-20.16,11.64-30.78,31.15-43.82,49.22-5.09,6.03-10.7,11.55-16.75,16.62-9.05,6.44-18.71,11.9-28.8,16.53-19.39,7.51-39.7,12.05-60.25,15.11-15.62,1.9-31.31,3.15-47,4.37-11.19,.87-21.32,4.06-29.47,12.21-7.23,7.23-12.67,19.09-12.21,29.47,.48,10.78,4.02,21.96,12.21,29.47,7.78,7.15,18.53,13.05,29.47,12.21,37.78-2.93,76.38-5.79,112.84-16.72,33.88-10.16,66.74-27.19,91.81-52.51,11.92-12.04,20.41-26.37,30.18-39.94,1.18-1.35,2.42-2.64,3.69-3.89,3.08-.88,6.21-1.53,9.38-2.05,71.47-9.04,143.11-16.84,214.65-25.28,11.42-1.35,21.02-3.76,29.47-12.21,7.23-7.23,12.67-19.09,12.21-29.47Z" fill="#1b914f"/></g></g><g><path d="M1480.82,611.67s-217.65-4.33-294.23,0-278.19-9.33-320.39,0-63.2,28.33-55.2,38.33,117-5,153,16-235.68,31-274.34,93,804.34,40,804.34,40l-13.18-187.33Z" fill="#22b562"/><g clip-path="#x"><path d="M962.17,650.4c-45.21-15.47-93.69-11.77-140.37-6.81-6.39,.68-11.91,4.99-11.91,11.91,0,5.91,5.47,12.59,11.91,11.91,44.6-4.74,90.81-8.83,134.03,5.96,6.08,2.08,13.02-2.39,14.65-8.32,1.79-6.53-2.21-12.56-8.32-14.65Z" fill="#1b914f"/></g></g></g></g><g id="y"><g id="a`"><rect width="1366" height="768" fill="#aa"/></g></g></svg>