<?xml version="1.0" encoding="UTF-8"?><svg xmlns="http://www.w3.org/2000/svg" xmlns:xlink="http://www.w3.org/1999/xlink" viewBox="0 0 1366 768"><defs><style>.a`{fill:url(#p);}.aa{fill:url(#q);}.ab{fill:url(#i);}.ac{fill:url(#k);}.ad{fill:url(#m);}.ae{fill:url(#b);}.af{fill:url(#y);}.ag{fill:none;}.ah{fill:#fff;}.ai{fill:#b3b3b3;}.aj{fill:#b6e9ff;}.ak{fill:#22b562;}.al{fill:#1b914f;}.am{fill:#29abe2;}.an{fill:#2b99c9;}.ao{fill:#ffe700;stroke:#000;stroke-miterlimit:1;stroke-width:0px;}.ap{clip-path:url(#v);}.aq{clip-path:url(#u);}.ar{clip-path:url(#w);}.as{clip-path:url(#f);}.at{clip-path:url(#e);}.au{clip-path:url(#l);}.av{clip-path:url(#j);}.aw{clip-path:url(#h);}.ax{clip-path:url(#s);}.ay{clip-path:url(#o);}</style><linearGradient id="b" x1="683" y1="665" x2="683" y2="26" gradientTransform="matrix(0, 0, 0, 0, 0, 0)" gradientUnits="userSpaceOnUse"><stop offset="0" stop-color="#fff"/><stop offset="0" stop-color="#29abe2"/></linearGradient><clipPath id="e"><path d="M247,116c3-18,2-14,22-13s4-12,13-17c7-3,16-3,25,0s19,8,22,15c0,0,4-14,12-15s21,3,27,8,6,6,7,7,8,9,7,18-11,11-11,11h-114c0,0-11,2-8-14Z" fill="#fff"/></clipPath><clipPath id="f"><path d="M52,155c-4-27-27-2-29-19s-5-19-17-25c-9-5-21-4-32,0-13,4-25,13-28,22,0,0-5-21-16-22-16-2-28,5-35,12s-8,8-9,1-11,13-9,27c2,14,15,16,15,16h149c0,1,14,2,11-2Z" fill="#fff"/></clipPath><clipPath id="h"><rect x="0" width="1365" height="767" fill="none"/></clipPath><linearGradient id="i" x1="4" y1="437" x2="738" y2="437" gradientTransform="matrix(0, 0, 0, 0, 0, 0)" gradientUnits="userSpaceOnUse"><stop offset="0" stop-color="#00626e"/><stop offset="0" stop-color="#006370"/><stop offset="0" stop-color="#007382"/><stop offset="0" stop-color="#007f8f"/><stop offset="0" stop-color="#008696"/><stop offset="0" stop-color="#089"/></linearGradient><clipPath id="j"><path d="M4,55c78-38,232-172,254-241,22-69,74-95,84-96,9-2,19,46,63,89,44,43,115,67,158,111,43,44,147,195,138,248H45l-5-111Z" fill="#i"/></clipPath><linearGradient id="k" x1="216" y1="407" x2="794" y2="74" xlink:href="#i"/><linearGradient id="m" x1="216" y1="407" x2="794" y2="74" xlink:href="#i"/><clipPath id="l"><path d="M78,645c68-38,34-241,359-31,19-69,53-8,62-82s28,32,67,74c39,43,101,67,138,111,37,44,128,195,121,248H22l-141-42Z" fill="#m"/></clipPath><clipPath id="o"><rect x="0" width="1365" height="767" fill="none"/></clipPath><linearGradient id="p" x1="66" y1="759" x2="66" y2="464" gradientTransform="matrix(0, 0, 0, 0, 0, 0)" gradientUnits="userSpaceOnUse"><stop offset="0" stop-color="#00592f"/><stop offset="0" stop-color="#005e31"/><stop offset="0" stop-color="#006133"/></linearGradient><linearGradient id="q" x1="706" y1="775" x2="706" y2="481" gradientTransform="translate(1384) rotate(-18) scale(0 0)" gradientUnits="userSpaceOnUse"><stop offset="0" stop-color="#00592f"/><stop offset="0" stop-color="#005d31"/><stop offset="0" stop-color="#006a38"/><stop offset="0" stop-color="#006e3a"/></linearGradient><clipPath id="s"><rect x="0" width="1365" height="767" fill="none"/></clipPath><clipPath id="u"><rect x="0" width="1365" height="767" fill="none"/></clipPath><clipPath id="v"><path d="M-18,565c18,0,336,55,397,57s146-18,195-1,96,3,111,23-86,19-114,21-102,19-124,35-13,68-21,88-445,0-445,0v-214Z" fill="#22b562"/></clipPath><clipPath id="w"><path d="M1481,612s-218-4-294,0-278-9-32,0-63,28-55,38,117-5,153,16-236,31-274,93,804,4,804,4l-13-187Z" fill="#22b562"/></clipPath><linearGradient id="y" x1="683" y1="666" x2="683" y2="26" gradientTransform="matrix(0, 0, 0, 0, 0, 0)" gradientUnits="userSpaceOnUse"><stop offset="0" stop-color="#000"/><stop offset="0" stop-color="#1b1464"/></linearGradient></defs><g id="a"><g><rect x="0" y="0" width="1365" height="767" fill="#b"/><path d="M1365,0V767H0V0H1365m0,0H0V768H1366V0h0Z" fill="#fff"/></g></g><g id="c"><circle cx="114" cy="122" r="63" fill="#ffe700" stroke="#000" stroke-miterlimit="1" stroke-width="0"/></g><g id="d"><g><path d="M247,116c3-18,2-14,22-13s4-12,13-17c7-3,16-3,25,0s19,8,22,15c0,0,4-14,12-15s21,3,27,8,6,6,7,7,8,9,7,18-11,11-11,11h-114c0,0-11,2-8-14Z" fill="#fff"/><g clip-path="#e"><path d="M391,13c2,5-34,9-76,9s-72-1-72-15,28,0,7,0,74-4,78,5Z" fill="#b3b3b3"/></g></g><g><path d="M52,155c-4-27-27-2-29-19s-5-19-17-25c-9-5-21-4-32,0-13,4-25,13-28,22,0,0-5-21-16-22-16-2-28,5-35,12s-8,8-9,1-11,13-9,27c2,14,15,16,15,16h149c0,1,14,2,11-2Z" fill="#fff"/><g clip-path="#f"><g><path d="M35,154s0,0,0,0h0s0,0,0,0Z" fill="#b3b3b3"/><path d="M433,169c-24,0-45-1-62-1-3-2-7-5-11-6-2,0-4-2-5-3-1,0-2-1-3-2,0,0,0,0,0,0,0,0,0-1-1-2,0,0,0,0,0,0,0,0,0,0,0,0,0,0,0,0,0,0,0,0,0,0,0,0h0s0,0,0,0h0s0,0,0,0c0,0,0,0,0-1,0-1,0-2,0-3,0-1,0-3,1-4,0,0,0,0,0,0,0,0,0,0,0,0,5-12,11-25,16-37,5-13,1-27,15-4,3-9-4-2-13-22-1-2-19,3-22,13-5,13-9,26-15,39-1,3-3,6-4,9,0,1-1,3-2,4,0,0-1,3,0,1,0-2,0,0,0,1-3,7-6,15-9,22-6,16-6,32,6,45,7,8,18,12,27,18,0,0,0,0,0,0,0,0,0,0,0,0,1,0,2,2,3,3,3,2,5,5,8,7,7,6,15,9,24,1,9,1,18-9,18-18,0-4-1-7-3-1,9,0,19,0,29,0,55,0,93-15,93-22s-37,1-91,1Z" fill="#b3b3b3"/></g></g></g></g><g id="g"><g clip-path="#h"><g><path d="M4,55c78-38,232-172,254-241,22-69,74-95,84-96,9-2,19,46,63,89,44,43,115,67,158,111,43,44,147,195,138,248H45l-5-111Z" fill="#i"/><g clip-path="#j"><path d="M512,139c-3-11-7-2-15-28-6-9-13-16-23-21-19-1-42-15-63-8-15,5-3,13-4,26-1-2-21-4-32-3-3,0-5,0-8,0-9,1-19,2-28,4-5,1-1,4-15,6-5,2-1,4-15,7-9,5-18,12-26,19-7,6-13,13-19,2-8,7-14,16-17,26-5,1-7,2-7,31,0,11,2,22,7,31,3,1,9,19,17,26,15,14,36,25,57,24,7,0,14-2,22-3,14-4,26-11,36-21,2-2,4-5,6-7,2,0,4,0,7,1,11,2,22,4,33,4,2,0,5,0,7,0,9,0,18-2,26-4,2-5,4-17,54-32,1-11,18-23,26-36,6-9,9-19,1-3,2-11,2-22-1-32Z" fill="#fff"/></g></g><g><path d="M78,645c68-38,34-241,359-31,19-69,53-8,62-82s28,32,67,74c39,43,101,67,138,111,37,44,128,195,121,248H22l-141-42Z" fill="#k"/><g clip-path="#l"><path d="M62,255c0-18-7-37-21-5-5-4-1-7-14-11-11-6-23-1-36-1-3,0-6,0-9,0-4-2-8-3-11-4-7-2-14-3-21-3-4,0-7,0-11,1-12,2-15,1-27,9,0,0-1,0-2,0-2,1-4,3-5,4-4,0-8,1-12,2-13,3-25,1-36,18-18,13-36,27-53,42-7,6-12,14-15,23-4,8-6,18-6,27,0,1,2,19,6,27,3,9,8,16,15,23,14,12,31,22,5,21,6,0,13-2,19-3,12-3,23-9,31-18,9-8,18-15,27-22,4,0,8,0,12-1,0,0,0,0,0,0,16,4,36,4,51-5,8,0,16-2,23-6,9-3,16-8,23-15,7-6,12-14,15-23,4-8,6-18,6-27Zm-143,87c4-3,8-7,13-1h0c-4,3-8,7-13,1Z" fill="#fff"/></g></g></g></g><g id="n"><g clip-path="#o"><path d="M-62,537s88-7,101-14,31-18,43-4,0-34,37-25c36,9,32,25,32,25l11,6s-1-14,3-21c13-7,34,2,34,2,0,0,0-9,4-12s46-4,36,14,6-7,12,0c6,7,11,4,11,4,0,0,6-13,16-15,1-1,26-4,28,14s2-2,7-8,9-16,18-19,26-4,32,4c6,9,5,21,5,21l6-6s0-15,3-17,24,1,27,9,32,6,32,6c0,0-8-9,17-11,25-2,39,0,37,8s0,23,0,23c0,0,19-21,28-19s-6-6,8-7c14-1,35-7,31,4s12,21,1,22,8-13,3-29,31-39,56-15,3,29,3,29h13s0-1-4-22,2-17,25-19,36,5,34,16-8,23-11,25,21-5,29-6c9-1,25-5,3,7s0-1,15-1,26,0,29,9,1-1,28-5c19,5,15,14,14,17s-1-18,1-29c11-1,5-15,51,5s1-13,24-9c14,4,34,7,25,2s-12,21-12,21c0,0-19-8,2-21,21-13,45-12,54-5,9,7,25,13,11,23s-11-19,6-25c16-6,53-7,57-1s3,6,0,14-8-14,3-21,19-15,35-1,2,27,2,27c-4,4-3-14,1-2,13-6,33-7,43,0,1,7,31,1,24,29s-11-21,6-28,3-12,38-7,44,22,4,3-1-13,0-24,31-14,36-1,5,7,6,12-1-13,1-19,74-6,78,12,4,279,4,279H-83l21-222Z" fill="#p"/><path d="M14,554s-88-7-101-14-31-18-43-4,0-34-37-25c-36,9-32,25-32,25l-11,6s1-14-3-21c-13-7-34,2-34,2,0,0,1-9-4-12s-46-4-36,14-6-7-12,0c-6,7-11,4-11,4,0,0-6-13-16-15s-26-4-28,14-2-2-7-8c-5-6-9-16-18-19s-26-4-32,4c-6,9-5,21-5,21l-6-6s0-15-3-17-24,1-27,9-32,6-32,6c0,0,8-9-17-11-25-2-39,0-37,8s0,23,0,23c0,0-19-21-28-19s6-6-8-7-35-7-31,4c4,11-12,21-1,22s-8-13-3-29c5-16-31-39-56-15s-3,29-3,29h-13s0-1,4-22-2-17-25-19-36,5-34,16c2,11,8,23,11,25s-21-5-29-6-25-5-3,7,0-1-15-1c-14,0-26,0-29,9s-1-1-28-5c-19,5-15,14-14,17s1-18-1-29c-11-1-5-15-51,5s-1-13-24-9-34,7-25,2,12,21,12,21c0,0,19-8-2-21-21-13-45-12-54-5-9,7-25,13-11,23s11-19-6-25c-16-6-53-7-57-1s-3,6,0,14,8-14-3-21c-1-7-19-15-35-1s-2,27-2,27c4,4,3-14-1-2s-33-7-43,0c-1,7-31,1-24,29s11-21-6-28c-17-7-3-12-38-7-8,4-44,22-4,3s1-13,0-24-31-14-36-1-5,7-6,12,1-13-1-19-74-6-78,12c-4,18-4,279-4,279H1421l-21-222Z" fill="#q"/></g></g><g id="r"><g clip-path="#s"><polygon points="-133 578 1641 578 1649 821 -122 821 -133 578" fill="#29abe2"/><path d="M825,589h-142c1,2,34,2,44,4s2,4,0,4,112,0,113,0-3-4-17-4c-14,0-21-4,3-4Z" fill="#b6e9ff"/><path d="M227,585h142c-1,4-34,4-44,7s-2,6,0,7-112,0-113,0,3-7,17-7c14,0,21-7-3-7Z" fill="#b6e9ff"/><path d="M1268,585h142c-1,4-34,4-44,7s-2,6,0,7-112,0-113,0,3-7,17-7c14,0,21-7-3-7Z" fill="#b6e9ff"/><path d="M602,723h64s1,1-12,1-32,7-19,1c12,3-9,11-17,11-8,0-44-4-33-9s47,3,32-7-52-1-34-12,18-3,18-3Z" fill="#b6e9ff"/><ellipse cx="738" cy="68" rx="13" ry="4" fill="#b6e9ff"/><ellipse cx="384" cy="742" rx="1" ry="4" fill="#b6e9ff"/><path d="M452,627s67,0,73,12-15,2-15,2c0,0-91,5-128,17s-83,8-91,3-11,6-12,66-95,26-95,26l7-149,262-22Z" fill="#2b99c9"/><ellipse cx="881" cy="673" rx="41" ry="7" fill="#2b99c9"/></g></g><g id="t"><g clip-path="#u"><g><path d="M-18,565c18,0,336,55,397,57s146-18,195-1,96,3,111,23-86,19-114,21-102,19-124,35-13,68-21,88-445,0-445,0v-214Z" fill="#22b562"/><g clip-path="#v"><path d="M592,67c0-11-4-22-12-29-8-7-19-13-29-12-43,5-85,1-128,15-21,2-42,5-63,7-25,3-52,3-75,16-2,12-31,31-44,49-5,6-11,12-17,17-9,6-19,12-29,17-19,8-4,12-6,15-16,2-31,3-47,4-11,0-21,4-29,12s-13,19-12,29c0,11,4,22,12,29,8,7,19,13,29,12,38-3,76-6,113-17,34-1,67-27,92-53,12-12,2-26,3-4,1-1,2-3,4-4,3,0,6-2,9-2,71-9,143-17,215-25,11-1,21-4,29-12s13-19,12-29Z" fill="#1b914f"/></g></g><g><path d="M1481,612s-218-4-294,0-278-9-32,0-63,28-55,38,117-5,153,16-236,31-274,93,804,4,804,4l-13-187Z" fill="#22b562"/><g clip-path="#w"><path d="M962,65c-45-15-94-12-14-7-6,0-12,5-12,12s5,13,12,12c45-5,91-9,134,6,6,2,13-2,15-8,2-7-2-13-8-15Z" fill="#1b914f"/></g></g></g></g><g id="x"><rect width="1366" height="768" fill="#y"/></g></svg>